<?xml version="1.0" encoding="utf-8"?>
<!-- Generator: Adobe Illustrator 16.0.0, SVG Export Plug-In . SVG Version: 6.00 Build 0)  -->
<!DOCTYPE svg PUBLIC "-//W3C//DTD SVG 1.1//EN" "http://www.w3.org/Graphics/SVG/1.1/DTD/svg11.dtd">
<svg version="1.1" id="Layer_1" xmlns="http://www.w3.org/2000/svg" xmlns:xlink="http://www.w3.org/1999/xlink" x="0px" y="0px"
	 width="225px" height="36px" viewBox="0 0 225 36" enable-background="new 0 0 225 36" xml:space="preserve">
<polyline fill="#FFFFFF" points="25.428,31.133 20.683,22.895 19.309,25.276 20.681,27.626 22.688,31.135 "/>
<polygon fill="#FFFFFF" points="12.862,28.835 11.539,31.131 25.484,31.131 24.066,28.768 "/>
<polygon fill="#FFFFFF" points="0.157,35.823 2.816,35.823 20.274,5.708 18.914,3.35 "/>
<path fill="#FFFFFF" d="M53.369,23.258h-6.5l-1.04,2.66h-1.849l5.284-13.141h1.797l5.267,13.141h-1.92L53.369,23.258z
	 M52.805,21.778l-2.66-6.852l-2.695,6.852H52.805z"/>
<g>
	<defs>
		<rect id="SVGID_1_" y="1" width="224.464" height="34.823"/>
	</defs>
	<clipPath id="SVGID_2_">
		<use xlink:href="#SVGID_1_"  overflow="visible"/>
	</clipPath>
	<path clip-path="url(#SVGID_2_)" fill="#FFFFFF" d="M64.146,25.759c-0.564,0.317-1.532,0.44-2.149,0.44
		c-2.871,0-5.055-2.096-5.055-4.685c0-2.591,2.184-4.687,5.055-4.687c0.599,0,1.533,0.141,2.149,0.476v1.532h-0.053
		c-0.739-0.476-1.515-0.581-2.078-0.581c-1.903,0-3.33,1.462-3.33,3.26c0,1.796,1.427,3.258,3.33,3.258
		c0.581,0,1.269-0.088,2.078-0.528h0.053V25.759z"/>
	<polygon clip-path="url(#SVGID_2_)" fill="#FFFFFF" points="68.674,18.502 68.674,25.918 67.036,25.918 67.036,18.502 
		65.855,18.502 65.855,17.11 67.036,17.11 67.036,14.31 68.674,13.658 68.674,17.11 69.837,17.11 69.837,18.502 	"/>
	<path clip-path="url(#SVGID_2_)" fill="#FFFFFF" d="M73.417,15.665h-1.726v-1.937h1.726V15.665z M73.382,25.917h-1.656V17.11h1.656
		V25.917z"/>
	<polygon clip-path="url(#SVGID_2_)" fill="#FFFFFF" points="80.749,25.918 78.812,25.918 74.988,17.111 76.82,17.111 
		79.797,24.227 82.845,17.111 84.57,17.111 	"/>
	<path clip-path="url(#SVGID_2_)" fill="#FFFFFF" d="M90.328,26.358c-3.047,0-5.073-2.132-5.073-4.844
		c0-2.679,1.973-4.845,4.774-4.845c2.625,0,4.721,2.061,4.721,4.739v0.405h-7.733c0.123,1.885,1.409,3.153,3.311,3.153
		c1.392,0,2.467-0.564,3.294-1.34l0.952,1.075C93.64,25.618,92.195,26.358,90.328,26.358 M87.105,20.527h5.83
		c-0.334-1.444-1.444-2.449-2.906-2.449C88.549,18.078,87.44,19.047,87.105,20.527"/>
	<path clip-path="url(#SVGID_2_)" fill="#FFFFFF" d="M104.708,25.882h-3.717V12.741h3.346c3.03,0,4.07,1.498,4.07,3.277
		c0,1.18-0.635,2.29-1.744,2.976c1.409,0.617,2.219,1.885,2.219,3.383C108.882,24.121,107.702,25.882,104.708,25.882
		 M102.787,14.239v4.174h1.198c1.673,0,2.748-0.986,2.748-2.219c-0.018-1.04-0.652-1.955-2.677-1.955H102.787z M102.787,19.84v4.545
		h1.568c2.061,0,2.713-1.109,2.713-2.185c0-1.392-1.075-2.36-2.783-2.36H102.787z"/>
	<path clip-path="url(#SVGID_2_)" fill="#FFFFFF" d="M117.053,24.79c-0.564,0.688-1.604,1.321-2.889,1.321
		c-1.92,0-3.188-1.251-3.188-3.294v-5.742h1.656v5.249c0,1.744,1.021,2.325,2.147,2.325c0.951,0,2.202-0.74,2.202-2.167v-5.407h1.64
		v8.807h-1.568V24.79z"/>
	<path clip-path="url(#SVGID_2_)" fill="#FFFFFF" d="M122.897,15.63h-1.727v-1.937h1.727V15.63z M122.861,25.882h-1.656v-8.808
		h1.656V25.882z"/>
	<rect x="125.435" y="12.142" clip-path="url(#SVGID_2_)" fill="#FFFFFF" width="1.656" height="13.74"/>
	<path clip-path="url(#SVGID_2_)" fill="#FFFFFF" d="M137.395,24.438c-0.828,1.093-2.148,1.814-3.698,1.814
		c-2.608,0-4.563-2.167-4.563-4.773c0-2.554,1.955-4.774,4.563-4.774c1.479,0,2.782,0.705,3.61,1.763v-6.324h1.639v13.74h-1.551
		V24.438z M134.101,18.185c-1.866,0-3.224,1.533-3.224,3.294c0,1.744,1.357,3.294,3.224,3.294c1.851,0,3.241-1.55,3.241-3.276
		C137.342,19.734,135.951,18.185,134.101,18.185"/>
	<path clip-path="url(#SVGID_2_)" fill="#FFFFFF" d="M143.23,15.63h-1.728v-1.937h1.728V15.63z M143.194,25.882h-1.656v-8.808h1.656
		V25.882z"/>
	<path clip-path="url(#SVGID_2_)" fill="#FFFFFF" d="M147.401,25.882h-1.656v-8.808h1.585v1.093
		c0.564-0.688,1.586-1.322,2.889-1.322c1.921,0,3.172,1.25,3.172,3.293v5.743h-1.656v-5.249c0-1.744-1.022-2.324-2.132-2.324
		c-0.951,0-2.201,0.738-2.201,2.166V25.882z"/>
	<path clip-path="url(#SVGID_2_)" fill="#FFFFFF" d="M159.888,29.634c-0.828,0-1.797-0.07-2.959-0.317v-1.443
		c1.339,0.282,2.185,0.352,2.942,0.352c1.673,0,3.1-0.704,3.1-3.259v-0.845c-0.863,0.968-2.113,1.515-3.242,1.515
		c-2.378,0.018-4.49-1.762-4.49-4.457c0-2.713,2.096-4.474,4.49-4.492c1.146,0,2.414,0.564,3.277,1.568v-1.18h1.62v7.856
		C164.626,28.489,162.707,29.634,159.888,29.634 M163.006,21.179c0-1.656-1.322-3.03-2.959-3.03c-1.69,0-3.083,1.374-3.083,3.03
		c0,1.673,1.393,3.03,3.083,3.03C161.684,24.209,163.006,22.852,163.006,21.179"/>
	<path clip-path="url(#SVGID_2_)" fill="#FFFFFF" d="M180.925,14.767c-0.881-0.528-1.884-0.828-2.959-0.828
		c-3.013,0-5.461,2.501-5.461,5.302c0,2.871,2.448,5.372,5.461,5.372c1.075,0,2.078-0.3,2.959-0.827v1.797
		c-0.916,0.422-1.938,0.686-3.047,0.686c-4.052,0-7.188-3.135-7.188-7.01c0-3.858,3.136-6.976,7.188-6.976
		c1.109,0,2.114,0.265,3.047,0.705V14.767z"/>
	<path clip-path="url(#SVGID_2_)" fill="#FFFFFF" d="M187.554,26.287c-3.047,0-5.073-2.132-5.073-4.844
		c0-2.678,1.974-4.845,4.774-4.845c2.625,0,4.721,2.062,4.721,4.739v0.405h-7.732c0.123,1.885,1.408,3.153,3.311,3.153
		c1.392,0,2.467-0.564,3.294-1.339l0.952,1.074C190.866,25.547,189.422,26.287,187.554,26.287 M184.331,20.456h5.83
		c-0.334-1.443-1.444-2.449-2.906-2.449C185.774,18.007,184.666,18.977,184.331,20.456"/>
	<path clip-path="url(#SVGID_2_)" fill="#FFFFFF" d="M195.729,25.847h-1.656V17.04h1.585v1.092c0.564-0.688,1.586-1.321,2.89-1.321
		c1.92,0,3.171,1.25,3.171,3.294v5.742h-1.656v-5.249c0-1.744-1.021-2.325-2.132-2.325c-0.951,0-2.201,0.74-2.201,2.166V25.847z"/>
	<polygon clip-path="url(#SVGID_2_)" fill="#FFFFFF" points="206.252,18.431 206.252,25.847 204.614,25.847 204.614,18.431 
		203.435,18.431 203.435,17.039 204.614,17.039 204.614,14.239 206.252,13.587 206.252,17.039 207.415,17.039 207.415,18.431 	"/>
	<path clip-path="url(#SVGID_2_)" fill="#FFFFFF" d="M210.954,25.847h-1.655V17.04h1.585v1.814c0.352-0.687,1.251-1.814,2.502-1.814
		h0.28v1.867c-0.069-0.053-0.264-0.07-0.352-0.07c-1.444,0-2.36,1.304-2.36,2.184V25.847z"/>
	<path clip-path="url(#SVGID_2_)" fill="#FFFFFF" d="M220.042,26.287c-3.048,0-5.073-2.132-5.073-4.844
		c0-2.678,1.973-4.845,4.773-4.845c2.625,0,4.722,2.062,4.722,4.739v0.405h-7.733c0.123,1.885,1.409,3.153,3.312,3.153
		c1.392,0,2.467-0.564,3.294-1.339l0.951,1.074C223.354,25.547,221.908,26.287,220.042,26.287 M216.818,20.456h5.83
		c-0.334-1.443-1.443-2.449-2.906-2.449C218.263,18.007,217.153,18.977,216.818,20.456"/>
	<polygon clip-path="url(#SVGID_2_)" fill="#FFFFFF" points="20.262,1 18.913,3.351 30.1,22.768 37.795,36.095 40.524,36.095 	"/>
	<polygon clip-path="url(#SVGID_2_)" fill="#FFFFFF" points="4.029,33.731 30.43,33.745 30.422,33.731 33.151,33.731 34.517,36.095 
		2.658,36.095 	"/>
	<polyline clip-path="url(#SVGID_2_)" fill="#FFFFFF" points="33.17,33.764 20.24,11.368 18.865,13.749 20.237,16.099 
		20.238,16.099 30.43,33.745 	"/>
	<polygon clip-path="url(#SVGID_2_)" fill="#FFFFFF" points="8.702,31.131 18.865,13.748 20.232,16.088 11.539,31.131 	"/>
</g>
</svg>
